<svg id="Layer_1" data-name="Layer 1" xmlns="http://www.w3.org/2000/svg" viewBox="0 0 100 100"><defs><style>.cls-1{fill:#2e2e2e;}.cls-2{fill:#91fe0b;}</style></defs><rect class="cls-1" width="100" height="100" rx="18.37"/><path class="cls-2" d="M17.44,40.79c.9,0,1.35.64,1.35,1.93v.4c0,.26,0,.46,0,.62,0,.86.25,1.28.76,1.28q.41,0,1.26-1A9.12,9.12,0,0,1,24,41.66a9.71,9.71,0,0,1,4-.87q4,0,5.51,2.9c.4.72.72,1.07,1,1.07s.58-.31,1.24-.95a9.77,9.77,0,0,1,7-3,7.38,7.38,0,0,1,5,1.69,6.59,6.59,0,0,1,2,5.28c0,.51,0,1.36,0,2.57,0,.41,0,1.65,0,3.73,0,1.33,0,2.27,0,2.81,0,.33,0,.57,0,.71a4.05,4.05,0,0,0,1,2.66,9.57,9.57,0,0,1,.7.92,1.16,1.16,0,0,1,.13.6q0,3-7.15,3.05a14.45,14.45,0,0,1-5.11-.76c-1.29-.51-1.93-1.18-1.93-2a1.59,1.59,0,0,1,.13-.73c.08-.16.39-.6.91-1.32s.74-2.81.74-6.49A15.08,15.08,0,0,0,38.6,49a2,2,0,0,0-2.09-1.5,2.21,2.21,0,0,0-1.4.49,2.27,2.27,0,0,0-.79,1.23,28.63,28.63,0,0,0-.24,4.56,39.59,39.59,0,0,0,.25,4.85,7.65,7.65,0,0,0,1.2,2.38,1.59,1.59,0,0,1,.24.9q0,2.83-7.4,2.83a17.78,17.78,0,0,1-6-.66,1.87,1.87,0,0,1-1.23-1.86,1.67,1.67,0,0,1,.15-.83,9.56,9.56,0,0,1,1.06-1.09A2.71,2.71,0,0,0,23,59.4a7.25,7.25,0,0,0,.22-1.61c.11-1.74.17-3.5.17-5.28,0-3.1-.79-4.66-2.38-4.66-1.19,0-1.89.67-2.12,2a38.52,38.52,0,0,0-.28,5.38,30.69,30.69,0,0,0,.11,3.42,4.86,4.86,0,0,0,.58,1.69A3.66,3.66,0,0,1,19.91,62c0,1-.72,1.75-2.16,2.14a19.62,19.62,0,0,1-5.19.64,18,18,0,0,1-5.37-.58c-1.14-.39-1.71-1-1.71-1.84a1.4,1.4,0,0,1,.22-.81,7.33,7.33,0,0,1,1-1A4,4,0,0,0,8,57.82c.18-2,.26-4,.26-6.11A14.87,14.87,0,0,0,8,48.56a2.45,2.45,0,0,0-1-1.44,4.62,4.62,0,0,1-.91-.84,1.29,1.29,0,0,1-.2-.78q0-1.59,2.49-2.52Q14.43,40.82,17.44,40.79Z"/><path class="cls-2" d="M76.45,54.46l-2.85,6.4A11.68,11.68,0,0,1,72.41,63a1.29,1.29,0,0,1-1,.56,1.2,1.2,0,0,1-.92-.46,14.12,14.12,0,0,1-1.21-2.09c-.62-1.2-1.14-2.27-1.55-3.21l-3.14-7.06c-.43-1-.88-1.48-1.36-1.48s-.78.43-.83,1.26c-.11,1.88-.17,3.6-.17,5.19a15.15,15.15,0,0,0,.24,3.35,1.66,1.66,0,0,0,.44.76,9.19,9.19,0,0,0,1.49.86,1.45,1.45,0,0,1,.78,1.4c0,1.78-2.27,2.66-6.82,2.66q-5.76,0-5.76-2.59a1.31,1.31,0,0,1,.3-1,6.6,6.6,0,0,1,1.53-.89,1.94,1.94,0,0,0,1.06-1A9.52,9.52,0,0,0,56,57q.21-1.91.4-6.24t.19-7.43A15.58,15.58,0,0,0,56,38a2.26,2.26,0,0,0-.49-.71,5.65,5.65,0,0,0-1-.62c-1.12-.54-1.68-1.23-1.68-2.09a2.21,2.21,0,0,1,.63-1.52,3.45,3.45,0,0,1,1.67-1,19.57,19.57,0,0,1,2.8-.53,23.82,23.82,0,0,1,3-.23,13,13,0,0,1,4.3.5,2.5,2.5,0,0,1,1,.64,11.08,11.08,0,0,1,1,1.67l4.94,9.11a13.2,13.2,0,0,0,1.12,1.83,1.12,1.12,0,0,0,.86.33,1.17,1.17,0,0,0,.84-.36,5.2,5.2,0,0,0,.87-1.33l3.35-6.54c.41-.84.68-1.39.81-1.64a8.27,8.27,0,0,1,2.31-3.16q1.44-1,5.28-1c4.48,0,6.73,1,6.73,3.06A2,2,0,0,1,94,35.55a4.22,4.22,0,0,1-1.07,1A3.76,3.76,0,0,0,91.5,39,50.21,50.21,0,0,0,91,47a86.91,86.91,0,0,0,.57,10.63A3.39,3.39,0,0,0,92,59.1a6.62,6.62,0,0,0,1.53,1.21,1.76,1.76,0,0,1,.86,1.53c0,1.11-.74,1.89-2.21,2.35a11.12,11.12,0,0,1-2.4.5c-.85.08-2.14.12-3.88.12a23.2,23.2,0,0,1-6-.57q-2.19-.64-2.19-2.19a1.56,1.56,0,0,1,.28-.94,13.42,13.42,0,0,1,1.48-1.34,3.08,3.08,0,0,0,.84-1.93A35.43,35.43,0,0,0,80.52,53a10.77,10.77,0,0,0-.18-2.5.74.74,0,0,0-.75-.59,1.66,1.66,0,0,0-1.28.91A30.25,30.25,0,0,0,76.45,54.46Z"/></svg>